<svg width="70" height="60" viewBox="0 0 70 60" fill="none" xmlns="http://www.w3.org/2000/svg">
<g clip-path="url(#clip0_323_1910)">
<path d="M38.7381 28.8648L38.9831 29.5667L39.1511 29.8075L39.2561 30.0208L39.4591 30.5231L39.4031 30.6676L39.3611 31.0804L39.2911 31.2937L39.1791 31.4658L39.5011 31.9681L39.7251 32.491L39.5711 32.7525L39.4521 32.8763L39.1721 32.9864L38.9201 33.241L38.8501 33.5713L39.0601 33.9772L39.3541 34.163L39.5081 34.1836L39.9211 34.3075L39.9981 34.3694L39.9561 34.6997V35.7043L39.7251 36.1171L39.2141 36.6676L38.8431 37.3694L38.8991 38.491L38.7101 40.1561L38.2831 41.3809L38.1501 42.0827L38.0661 42.7295L37.8981 43.0047L37.6601 42.8052L37.3871 42.6469L37.0371 42.6607L36.9391 42.8465V43.163L36.7151 44.8969L36.9601 47.4979L36.2181 50.0575L36.0571 53.9107L35.8751 54.6538L35.5461 55.3969L35.1261 56.0919L34.6711 56.7043L33.9641 57.413L33.3131 57.7846L32.6201 57.9153L31.7661 57.8878L30.9961 57.6607L30.6041 57.6676L30.3451 57.9841L30.2331 58.6928L30.0861 59.0093L29.7501 59.2089L28.9801 59.2983L28.3291 59.202L26.5301 58.6171L26.2851 58.6034L25.2631 58.968L25.0041 59.1194L24.7311 59.2295L24.3741 59.2158L23.6251 59.3121L22.9811 59.7112L22.3231 59.9314L21.5251 59.4841L19.6141 59.1332L18.9981 59.2089L17.5141 59.8419L16.6671 59.9176L16.3661 59.2708L16.3241 58.8511L16.0021 58.1424L15.9251 57.757L16.0441 57.3992L16.5201 56.8281L16.5971 56.4428L16.3871 56.0231L15.6381 55.3281L15.6311 55.3006L16.2821 54.9635L16.4501 54.9084L16.7651 54.7502L17.2551 53.8969L17.3671 52.6722L16.7931 51.8396L16.7441 51.5988L16.8491 50.9589L16.7091 50.7456L16.5411 50.4153L16.2821 50.0781L16.0721 49.6515L15.9951 49.1424L15.7151 48.7639L15.2531 48.5575L14.6091 48.358L14.1961 48.1378L14.1611 47.9038L14.3221 47.4635L14.6161 47.03L16.0511 46.2662L16.1911 45.9635L15.9881 45.2616L16.6181 44.2639L16.6461 43.9543L16.4151 43.4864L16.1841 42.9291L16.2821 42.4681L16.6251 42.0552L17.1501 41.7937L17.6611 41.718L18.0461 41.835L18.4871 41.6424L19.1241 41.1676L19.8171 41.0575L20.8251 41.0231L21.0351 41.0506L21.5321 40.5414L22.3861 39.8809L22.8481 39.6332L23.2191 39.3029L23.6601 39.0346L23.8631 38.8281L24.0031 38.6286L24.4021 38.7731L24.9411 38.5942L25.5431 38.2502L25.8231 38.0988L25.8091 37.6378L25.6831 37.1699L25.5781 36.9566L25.6201 36.6125L25.9351 36.0483L26.1311 35.5804V35.3258L26.3411 34.9474L26.7471 34.3488L26.8031 34.0323L26.8731 33.4543L26.7681 33.2272L26.6491 32.8488L26.6841 32.1332L26.5581 31.3901L26.4041 31.046H26.7541L27.2721 31.0736L27.6711 30.9497L27.9861 30.6676L28.0701 30.3098L27.9161 30.0346L27.7831 29.6561L27.7761 29.2846L27.9091 29.0231L28.0841 28.5896L27.9861 27.6882L27.8251 26.8557L27.8391 26.4428L27.9511 26.0506L28.0421 25.108L27.9301 23.9726L27.7971 23.3603L27.6991 23.0162L27.6081 22.8924L27.8111 22.8304L28.2031 22.7754L28.5881 22.8511L29.1551 23.2158L29.7991 23.4497L30.2331 23.374L30.4921 23.4153L30.6181 23.7249L30.9751 24.2685L31.4301 24.9428L31.8361 25.5552L32.3191 26.0025L32.4871 26.491L33.1381 26.8969L34.0831 27.2135L34.7411 27.2066L35.4271 27.0827L36.0291 27.0965L36.4421 27.2203L36.6801 27.3924L36.9531 27.53L37.2051 27.702L37.7091 28.1768L38.0381 28.5277L38.3741 28.7479L38.6471 28.8029L38.7381 28.8648Z" fill="#1463F3" stroke="#0C243C" stroke-width="0.231651" stroke-linecap="round" stroke-linejoin="round"/>
<path d="M27.6083 22.8918L27.6993 23.0157L27.7973 23.3597L27.9303 23.9721L28.0423 25.1074L27.9513 26.0501L27.8393 26.4423L27.8253 26.8551L27.9863 27.6877L28.0843 28.5891L27.9093 29.0225L27.7763 29.284L27.7833 29.6556L27.9163 30.034L28.0703 30.3092L27.9863 30.667L27.6713 30.9491L27.2723 31.073L26.7543 31.0455H26.4043L26.5583 31.3895L26.6843 32.1326L26.6493 32.8482L26.7683 33.2267L26.8733 33.4537L26.8033 34.0317L26.7473 34.3482L26.3413 34.9469L26.1313 35.3253V35.5799L25.9353 36.0478L25.6203 36.612L25.5783 36.956L25.6833 37.1693L25.8093 37.6372L25.8233 38.0982L25.5433 38.2496L24.9413 38.5936L24.4023 38.7725L24.0033 38.628L23.8633 38.8276L23.6603 39.034L23.2193 39.3024L22.8483 39.6326L22.3863 39.8803L21.5323 40.5409L21.0353 41.0501L20.8253 41.0225L19.8173 41.0569L19.1243 41.167L18.4873 41.6418L18.0463 41.8345L17.6613 41.7175L17.1503 41.7932L16.6253 42.0546L16.2823 42.4675L16.1843 42.9285L16.4153 43.4858L16.6463 43.9537L16.6183 44.2634L15.9883 45.2611L16.1913 45.9629L16.0513 46.2657L14.6163 47.0294L14.3223 47.4629L14.1613 47.9033L14.1963 48.1372L14.6093 48.3574L15.2533 48.5569L15.7153 48.7634L15.9953 49.1418L16.0723 49.651L16.2823 50.0776L16.5413 50.4147L16.7093 50.745L16.8493 50.9583L16.7443 51.5982L16.7933 51.8391L17.3673 52.6716L17.2553 53.8964L16.7653 54.7496L16.4503 54.9079L16.2823 54.9629L15.6313 55.3001L15.5123 54.8391L15.5543 54.44L15.5333 54.2817L15.1133 53.979L14.4833 53.6212L13.7553 53.4491L12.2993 53.2702L11.5363 53.0432L9.44331 52.1418L8.88331 52.0661L6.88131 52.1968L6.10431 52.9468L5.50931 56.3322L4.98431 55.7542L4.27731 55.417L3.25531 55.3069L2.79331 55.128L1.51231 54.3024L1.24631 54.034L1.47731 51.4468L1.24631 50.6556L0.889313 50.3046L0.504312 50.1189L0.196313 49.9124L0.0703125 49.479L0.196313 49.0386L0.791313 48.5088L0.665313 48.0822L1.10631 47.573L1.32331 46.6716L1.70131 45.7771L2.37331 45.1991L3.87131 44.628L4.51531 44.1602L4.65531 44.0225L4.85831 43.9056L5.00531 43.6923L5.46731 42.0959L5.66331 41.7794L5.94331 41.6074L6.60131 41.8276L6.75531 42.5982L6.79731 43.4514L7.11931 43.94L6.81831 44.6487L6.41931 45.3161L6.96531 44.9721L7.22431 44.4629L7.39231 43.8918L7.71431 43.362L7.79131 43.1624L7.77031 42.7083L7.82631 42.5363L7.97331 42.495L8.18331 42.5294L8.33731 42.6257L8.29531 42.7978L8.72931 42.3092L8.89031 42.0202L9.00231 41.6074H9.25431L9.22631 42.0271L9.07231 42.5845L9.00231 42.9835L10.4303 40.2244L10.8643 40.5065L11.3543 40.6166L11.7393 40.4652L11.8583 39.9767L11.6273 40.1349L11.3753 40.2244L11.2003 39.5363L11.2843 38.8964L11.6483 38.518L12.3343 38.6074L12.0753 37.6235L12.6983 36.9973L13.6643 36.9423L14.4343 37.6647L14.3433 37.0936L14.0143 36.7634L13.6713 36.5638L13.5103 36.3849L13.5313 35.2978L13.7343 34.8849L14.2103 34.6303L14.0493 35.5592L14.0353 35.9377L14.2103 36.2473H14.4343L14.5253 35.2634L14.6653 34.7335L14.8963 34.4033L15.2043 34.3826L15.4563 34.6097L15.8413 35.3528L16.0303 35.0088L16.0723 34.6441L15.9883 34.2725L15.8413 33.9423L16.1913 33.8459L16.4503 33.667L16.6813 33.4469L17.0173 33.2473L17.0313 33.4262L17.2133 33.667H17.4093L17.5003 33.1372L17.3603 32.6418L17.0943 32.1189L16.9053 31.5547L17.0173 30.9147L16.5973 31.1418L16.3873 30.956L16.0723 30.2267L16.0443 30.0684L15.8763 29.6693L15.7083 29.4079L15.6173 29.6487L14.7843 28.8161L14.4693 28.1143L14.8963 27.4469L14.6023 26.8001L14.5113 25.128L13.9723 24.4469L14.2873 24.0615L14.3783 23.6143L14.3433 23.1602L14.2103 22.8024L14.0563 22.6854L13.6013 22.5684L13.5103 22.4721L13.5733 22.2657L13.7133 22.0661L13.7903 21.8666L13.7413 21.6602L13.4613 21.4675L12.5933 21.151L13.0063 20.3735L13.4263 19.7748L15.0853 18.4193L15.4353 17.979L16.3803 16.0661L16.7723 15.5638L17.3183 15.3368L19.9433 15.2336L20.1813 15.0891L20.2933 14.9102L21.0563 15.9423L21.8893 16.9056L22.6313 17.1533L23.2823 17.3597L23.5623 17.3528L23.7863 17.2634L24.6683 17.6556L25.3053 17.9721L25.9983 17.9308L26.6773 17.979L26.8173 19.0042L26.8663 20.3872L26.8523 21.3712L26.8103 22.1074L27.2373 22.6166L27.6083 22.8918Z" fill="#1463F3" stroke="#0C243C" stroke-width="0.231651" stroke-linecap="round" stroke-linejoin="round"/>
<path d="M37.8984 43.0041L38.0664 42.7289L38.1504 42.0821L38.2834 41.3803L38.7104 40.1555L38.8994 38.4904L38.8434 37.3688L39.2144 36.667L39.7254 36.1165L39.9564 35.7037V34.6991L39.9984 34.3688L40.1594 34.2381L40.6984 33.9835L40.8804 33.7977L41.1254 33.7289L41.4124 34.0798L41.7064 34.1142L41.9164 34.0867L43.0714 33.8184L43.5614 33.7702L43.6454 33.6395L44.0934 33.2954L44.6604 33.034L45.0734 32.8895L45.5004 33.0064L45.8574 33.4743L46.0954 33.8321L46.5784 34.4583L46.8094 34.1349L47.0824 33.5225L47.3134 32.2977L47.4114 31.0798L47.4324 30.6876L47.6214 30.4743L48.1184 30.2679L48.5874 30.0477L48.7484 29.7656L48.7624 29.0982L48.6924 28.5408L48.4894 28.3413L48.2724 28.0867L48.3004 27.6188L48.1674 27.1303L47.9294 26.8L47.8874 26.6211L48.0204 26.5248L48.2654 26.2702L48.7554 25.9537L48.7484 25.4376L48.4824 24.3986L48.1254 23.2358L47.9994 22.5271L48.2514 21.7633L48.0484 21.3092L47.5584 20.7862L46.8864 19.9674L46.2634 19.1693L45.8154 18.7083L45.4794 18.1028L45.2134 17.4147L45.0664 16.6578L45.2484 16.0867L45.5214 15.8459L45.5354 15.6945L45.3464 15.5913H45.0104L44.2894 15.8252L44.2684 15.5156L44.1774 14.9927L43.7364 14.0362L43.4354 13.4858L43.0504 12.9147L42.6164 12.206L42.3924 12.0271L42.2034 11.7725L42.0914 11.4285L41.9024 11.2771L41.6574 11.1739L42.6724 10.644L44.0794 10.1005L44.4504 9.76331L44.6254 9.24726L44.8354 7.93304L45.0804 7.47203L45.3534 7.31377L45.8994 7.25184L46.1514 7.17616L46.6834 6.86652L48.2164 5.43533L48.6644 4.86423L49.0354 4.25185L49.1054 4.03166L49.1824 3.54313L49.2804 3.34359L49.5184 3.14405L50.0994 2.88946L50.3094 2.71744L50.4844 2.20827L50.7084 0.804598L50.9954 0.322946L51.5204 0.137167L52.0944 0.219736L52.6754 0.391754L53.2564 0.460561L53.7954 0.329827L54.2504 0.130286L54.7194 0.0683594L55.6154 0.343589L55.3424 0.625699L55.0764 0.997258L54.9714 1.3757L55.0834 1.74038L55.5874 2.07753L55.6994 2.53854L55.6294 2.73808L55.4964 2.93074L55.4054 3.13717L55.4614 3.33671L55.7624 3.53625L56.0354 3.49496L56.2594 3.37799L56.4064 3.33671L56.8264 3.63946L56.9734 3.84588L57.1064 4.72662L57.3164 5.21515L57.9464 6.24038L58.1494 6.92845L58.4644 7.33441L58.5344 7.60964L58.3454 8.06377L58.3034 8.31836L58.4924 8.85506L58.9334 9.18533L59.9484 9.59818L60.3124 9.85276L60.8304 10.3344L61.1454 10.5202L63.4134 11.3528L64.0924 11.4491L64.7574 11.8482L64.9534 12.7289L64.8904 13.6096L64.7854 14.0087L64.6034 14.2083L64.8064 14.6486L65.3734 15.3986L65.8004 15.8459L65.9544 16.1005L66.2904 17.3184L66.6194 18.0821L67.1584 18.5018L67.9774 18.1922L68.2294 18.9078L68.2014 19.7817L67.7534 22.4514L67.7464 22.8092L67.8234 22.9881L68.1244 23.4491L68.2154 23.7587L67.8164 24.6876L67.9424 25.0454L68.2154 26.4078L68.0264 26.9789L67.6764 27.4881L67.4804 28.011L67.7464 28.6165L67.1864 29.0431L66.9764 29.2633L66.8014 29.5385L67.8374 29.6968L67.9424 30.5913L67.4874 32.5661L68.1314 32.4284L68.7474 32.7312L69.2724 33.2473L69.6434 33.7358L69.9304 34.7197L68.7474 38.4904L68.4464 39.9835L68.5934 42.3023L68.4464 42.9904L68.0894 43.6234L67.6414 43.9399L67.0674 44.1945L66.5354 44.4904L66.0524 44.6073L65.8074 44.7518L65.4924 44.8344L65.2124 44.7656L63.4134 43.8918L63.0494 43.7817L62.6014 43.8367L62.2094 44.1463L61.7194 45.0546L61.3274 45.3711L60.6134 45.4124L59.8644 45.1991L59.1294 45.1096L58.4644 45.495L57.3374 45.4537L56.1894 44.9239L54.3204 43.417L54.1244 43.1486L53.9494 42.6739L53.7814 42.4881L53.6694 42.5294L52.5774 42.2748L52.4094 42.1922L51.8564 42.3505L51.5204 42.6601L51.2194 43.0454L50.7784 43.4514L50.2814 43.6991L49.6374 43.9055L48.9794 44.0362L48.4264 44.0638L47.9994 43.9674L46.9214 43.4514L46.5224 43.417L46.4034 43.644L46.3824 43.9606L46.3124 44.2014L44.7584 46.1142L44.1704 46.5133L43.4074 46.5408L42.6164 46.2381L41.8954 45.7702L41.3284 45.2817L40.2644 44.0431L39.8444 43.7266L39.4524 43.589L39.1234 43.5752L38.8294 43.6028L38.5634 43.5684L37.8984 43.0041Z" fill="#1463F3" stroke="#0C243C" stroke-width="0.231651" stroke-linecap="round" stroke-linejoin="round"/>
<path d="M41.657 11.1743L41.902 11.2775L42.091 11.4289L42.203 11.7729L42.392 12.0275L42.616 12.2064L43.05 12.9151L43.435 13.4862L43.736 14.0367L44.177 14.9931L44.268 15.5161L44.289 15.8257L45.01 15.5917H45.346L45.535 15.695L45.521 15.8463L45.248 16.0872L45.066 16.6583L45.213 17.4151L45.479 18.1032L45.815 18.7087L46.263 19.1697L46.886 19.9679L47.558 20.7867L48.048 21.3096L48.251 21.7638L47.999 22.5275L48.125 23.2362L48.482 24.3991L48.748 25.4381L48.755 25.9541L48.265 26.2706L48.02 26.5252L47.887 26.6216L47.635 26.5872L47.068 26.4014L45.997 25.6514L44.863 24.9083L44.296 24.578L44.023 24.461L43.61 25.4794L43.421 25.7202L43.099 25.6651L42.252 25.8165L41.559 26.1261L41.363 26.3739L40.992 26.7936L40.537 27.055L39.655 26.4839L39.326 26.594L38.787 27.4679L38.633 27.8119L38.955 28.7271L38.738 28.8647L38.647 28.8028L38.374 28.7477L38.038 28.5275L37.709 28.1766L37.205 27.7018L36.953 27.5298L36.68 27.3922L36.442 27.2202L36.029 27.0963L35.427 27.0826L34.741 27.2064L34.083 27.2133L33.138 26.8968L32.487 26.4908L32.319 26.0023L31.836 25.555L31.43 24.9427L30.975 24.2683L30.618 23.7248L30.492 23.4151L30.233 23.3739L29.799 23.4495L29.155 23.2156L28.588 22.8509L28.203 22.7752L27.811 22.8303L27.608 22.8922L27.237 22.617L26.81 22.1078L26.852 21.3716L26.866 20.3876L26.817 19.0046L26.677 17.9794L25.998 17.9312L25.305 17.9725L24.668 17.656L23.786 17.2638L23.562 17.3532L23.282 17.3601L22.631 17.1537L21.889 16.906L21.056 15.9427L20.293 14.9106L20.958 13.8853L22.141 12.6743L23.513 11.6972L24.864 11.2294L26.25 11.2982L26.971 11.25L27.608 11.078L28.322 10.6858L28.847 10.3073L29.428 10.0115L30.261 9.86697L30.674 9.95642L31.402 10.3968L31.64 10.4794L31.927 10.3142L32.13 9.64679L32.445 9.28211L32.76 9.08257L33.061 9L33.369 9.04128L33.747 9.23394L34.713 10.617L34.867 11.3257L34.951 12.7156L35.28 13.4312L35.875 13.9748L36.547 14.1674L37.268 14.0849L38.024 13.8096L40.362 12.5367L40.719 12.4679L41.027 11.7248L41.475 11.2706L41.657 11.1743Z" fill="#1463F3" stroke="#0C243C" stroke-width="0.231651" stroke-linecap="round" stroke-linejoin="round"/>
<path d="M47.8868 26.6215L47.9288 26.8004L48.1668 27.1307L48.2998 27.6192L48.2718 28.0871L48.4888 28.3417L48.6918 28.5412L48.7618 29.0986L48.7478 29.766L48.5868 30.0481L48.1178 30.2683L47.6208 30.4747L47.4318 30.688L47.4108 31.0802L47.3128 32.2981L47.0818 33.5229L46.8088 34.1352L46.5778 34.4586L46.0948 33.8325L45.8568 33.4747L45.4998 33.0068L45.0728 32.8898L44.6598 33.0343L44.0928 33.2958L43.6448 33.6398L43.5608 33.7706L43.0708 33.8187L41.9158 34.0871L41.7058 34.1146L41.4118 34.0802L41.1248 33.7293L40.8798 33.7981L40.6978 33.9839L40.1588 34.2385L39.9978 34.3692L39.9208 34.3073L39.5078 34.1834L39.3538 34.1628L39.0598 33.977L38.8498 33.571L38.9198 33.2408L39.1718 32.9862L39.4518 32.8761L39.5708 32.7522L39.7248 32.4908L39.5008 31.9678L39.1788 31.4655L39.2908 31.2935L39.3608 31.0802L39.4028 30.6674L39.4588 30.5229L39.2558 30.0206L39.1508 29.8073L38.9828 29.5664L38.7378 28.8646L38.9548 28.727L38.6328 27.8119L38.7868 27.4678L39.3258 26.594L39.6548 26.4839L40.5368 27.055L40.9918 26.7935L41.3628 26.3738L41.5588 26.1261L42.2518 25.8164L43.0988 25.6651L43.4208 25.7201L43.6098 25.4793L44.0228 24.4609L44.2958 24.5779L44.8628 24.9082L45.9968 25.6513L47.0678 26.4013L47.6348 26.5871L47.8868 26.6215Z" fill="#1463F3" stroke="#0C243C" stroke-width="0.231651" stroke-linecap="round" stroke-linejoin="round"/>
</g>
<defs>
<clipPath id="clip0_323_1910">
<rect width="70" height="60" fill="white"/>
</clipPath>
</defs>
</svg>
