<svg width="47" height="47" viewBox="0 0 47 47" fill="none" xmlns="http://www.w3.org/2000/svg">
<rect width="47" height="47" fill="#F5F5F5"/>
<rect width="1920" height="440" transform="translate(-995 -197)" fill="#0C243C"/>
<path d="M23.2468 0C18.649 0 14.1545 1.3634 10.3316 3.9178C6.50867 6.47219 3.52907 10.1029 1.76957 14.3507C0.0100724 18.5985 -0.450292 23.2726 0.446692 27.7821C1.34368 32.2915 3.55772 36.4337 6.80885 39.6848C10.06 42.936 14.2022 45.15 18.7116 46.047C23.2211 46.944 27.8952 46.4836 32.143 44.7241C36.3908 42.9646 40.0215 39.985 42.5759 36.1621C45.1303 32.3392 46.4937 27.8446 46.4937 23.2468C46.4937 17.0814 44.0445 11.1685 39.6848 6.80884C35.3252 2.44921 29.4123 0 23.2468 0ZM29.1381 21.0445L28.7527 24.2838C28.736 24.4341 28.6643 24.5729 28.5513 24.6735C28.4384 24.774 28.2921 24.8291 28.1409 24.8282H24.7762V34.4328C24.7771 34.5475 24.7325 34.6579 24.6523 34.7398C24.572 34.8217 24.4627 34.8686 24.348 34.8702H20.9222C20.8651 34.8694 20.8088 34.8574 20.7564 34.8349C20.704 34.8123 20.6566 34.7796 20.6168 34.7387C20.577 34.6978 20.5457 34.6495 20.5246 34.5965C20.5036 34.5435 20.4931 34.4868 20.4939 34.4298L20.5123 24.8282H17.9643C17.8021 24.8282 17.6465 24.7638 17.5317 24.649C17.417 24.5343 17.3525 24.3787 17.3525 24.2165V20.9803C17.3525 20.818 17.417 20.6624 17.5317 20.5477C17.6465 20.433 17.8021 20.3685 17.9643 20.3685H20.4939V17.2302C20.4939 13.5994 22.6565 11.6234 25.8162 11.6234H28.407C28.5693 11.6234 28.7249 11.6879 28.8396 11.8026C28.9543 11.9173 29.0188 12.0729 29.0188 12.2352V14.9606C29.0188 15.1228 28.9543 15.2784 28.8396 15.3931C28.7249 15.5079 28.5693 15.5723 28.407 15.5723H26.8195C25.1005 15.5998 24.7762 16.4227 24.7762 17.6523V20.3593H28.5447C28.63 20.3613 28.714 20.3811 28.7913 20.4174C28.8685 20.4538 28.9373 20.5059 28.9932 20.5704C29.0491 20.635 29.0909 20.7105 29.1158 20.7921C29.1408 20.8738 29.1483 20.9597 29.1381 21.0445Z" fill="white"/>
</svg>
