<svg width="47" height="47" viewBox="0 0 47 47" fill="none" xmlns="http://www.w3.org/2000/svg">
<rect width="47" height="47" fill="#F5F5F5"/>
<rect width="1920" height="440" transform="translate(-1049 -197)" fill="#0C243C"/>
<g clip-path="url(#clip0_99_39)">
<path d="M23.5 26.9204C25.5288 26.9204 27.1736 25.2757 27.1736 23.2468C27.1736 21.2179 25.5288 19.5732 23.5 19.5732C21.4711 19.5732 19.8264 21.2179 19.8264 23.2468C19.8264 25.2757 21.4711 26.9204 23.5 26.9204Z" fill="white"/>
<path d="M28.1983 13.9634H18.8016C17.5848 13.9634 16.4178 14.4468 15.5573 15.3072C14.6969 16.1677 14.2135 17.3347 14.2135 18.5516V27.9451C14.2135 29.162 14.6969 30.329 15.5573 31.1895C16.4178 32.0499 17.5848 32.5333 18.8016 32.5333H28.1983C29.4151 32.5333 30.5821 32.0499 31.4426 31.1895C32.3031 30.329 32.7864 29.162 32.7864 27.9451V18.5485C32.7856 17.3322 32.3019 16.1659 31.4415 15.3061C30.5812 14.4464 29.4146 13.9634 28.1983 13.9634ZM23.5 29.2604C22.3104 29.261 21.1475 28.9088 20.1581 28.2484C19.1688 27.588 18.3976 26.649 17.9419 25.5502C17.4863 24.4515 17.3668 23.2422 17.5985 22.0755C17.8302 20.9088 18.4027 19.837 19.2436 18.9957C20.0845 18.1543 21.156 17.5813 22.3226 17.349C23.4892 17.1167 24.6985 17.2356 25.7975 17.6907C26.8965 18.1458 27.8359 18.9165 28.4968 19.9055C29.1577 20.8945 29.5105 22.0573 29.5105 23.2468C29.5089 24.8407 28.8752 26.3689 27.7484 27.4962C26.6217 28.6235 25.0938 29.258 23.5 29.2604ZM29.5472 18.7198C29.2529 18.7204 28.9651 18.6337 28.7201 18.4705C28.4752 18.3074 28.2842 18.0753 28.1713 17.8035C28.0584 17.5318 28.0287 17.2326 28.086 16.944C28.1432 16.6553 28.2849 16.3902 28.493 16.1821C28.7011 15.974 28.9662 15.8323 29.2549 15.7751C29.5435 15.7178 29.8427 15.7475 30.1144 15.8604C30.3862 15.9733 30.6183 16.1643 30.7814 16.4092C30.9446 16.6542 31.0313 16.942 31.0307 17.2363C31.0299 17.6295 30.8733 18.0064 30.5953 18.2844C30.3173 18.5624 29.9404 18.719 29.5472 18.7198Z" fill="white"/>
<path d="M23.5 0C18.9022 0 14.4077 1.3634 10.5848 3.9178C6.76185 6.47219 3.78224 10.1028 2.02274 14.3507C0.263246 18.5985 -0.197118 23.2726 0.699866 27.7821C1.59685 32.2915 3.8109 36.4337 7.06202 39.6848C10.3132 42.9359 14.4553 45.15 18.9648 46.047C23.4742 46.944 28.1484 46.4836 32.3962 44.7241C36.644 42.9646 40.2747 39.985 42.829 36.1621C45.3834 32.3392 46.7468 27.8446 46.7468 23.2468C46.7468 17.0814 44.2976 11.1685 39.938 6.80884C35.5784 2.44921 29.6655 0 23.5 0ZM35.1234 27.9451C35.1218 29.7813 34.3917 31.5418 33.0933 32.8401C31.795 34.1385 30.0345 34.8686 28.1983 34.8702H18.8017C16.9658 34.8678 15.2058 34.1374 13.9076 32.8392C12.6094 31.5411 11.879 29.781 11.8766 27.9451V18.5485C11.879 16.7126 12.6094 14.9526 13.9076 13.6544C15.2058 12.3562 16.9658 11.6258 18.8017 11.6234H28.1983C30.0342 11.6258 31.7942 12.3562 33.0924 13.6544C34.3906 14.9526 35.121 16.7126 35.1234 18.5485V27.9451Z" fill="white"/>
</g>
<defs>
<clipPath id="clip0_99_39">
<rect width="46.4937" height="46.4937" fill="white" transform="translate(0.253174)"/>
</clipPath>
</defs>
</svg>
