<svg width="47" height="47" viewBox="0 0 47 47" fill="none" xmlns="http://www.w3.org/2000/svg">
<rect width="47" height="47" fill="#F5F5F5"/>
<rect width="1920" height="440" transform="translate(-1103 -197)" fill="#0C243C"/>
<path d="M30.1766 16.8233L30.1308 16.7774C28.6103 15.2651 26.6011 14.3435 24.463 14.1777C22.3249 14.0119 20.1976 14.6127 18.4622 15.8726C16.7268 17.1325 15.4966 18.9691 14.992 21.0534C14.4875 23.1377 14.7415 25.3336 15.7085 27.2477L16.1062 28.0307L15.3629 31.634V31.6799L18.9325 30.8326L19.7462 31.2363C21.4396 32.0769 23.354 32.3649 25.2198 32.0598C27.0856 31.7547 28.8086 30.8718 30.146 29.5357C31.8253 27.8483 32.7705 25.5663 32.7762 23.1858C32.782 20.8052 31.8477 18.5187 30.1766 16.8233ZM29.8157 26.9173C29.3783 27.6056 28.6839 28.4467 27.8183 28.6578C26.2889 29.0279 23.9612 28.6578 21.0461 25.963L21.0094 25.9293C18.4737 23.5618 17.8008 21.5889 17.9506 20.0259C18.0393 19.1388 18.7796 18.3374 19.4036 17.8113C19.5025 17.727 19.6199 17.6672 19.7463 17.6366C19.8726 17.6061 20.0044 17.6057 20.1309 17.6355C20.2575 17.6652 20.3752 17.7243 20.4747 17.808C20.5742 17.8917 20.6526 17.9976 20.7036 18.1172L21.6426 20.2583C21.7039 20.395 21.7269 20.5457 21.7091 20.6944C21.6913 20.8431 21.6335 20.9842 21.5417 21.1026L21.0645 21.7143C20.9653 21.8413 20.9062 21.995 20.8948 22.1557C20.8833 22.3164 20.9201 22.4769 21.0003 22.6167C21.4537 23.2836 21.9961 23.8856 22.6122 24.4061C23.2738 25.0462 24.0262 25.5853 24.8452 26.0058C24.9943 26.0664 25.1582 26.081 25.3157 26.0477C25.4732 26.0145 25.6172 25.9349 25.7292 25.8192L26.2767 25.2656C26.3789 25.1484 26.5119 25.0623 26.6605 25.0169C26.8092 24.9715 26.9676 24.9686 27.1178 25.0086L29.3508 25.651C29.4749 25.6873 29.5889 25.752 29.6838 25.8399C29.7786 25.9278 29.8518 26.0365 29.8975 26.1575C29.9431 26.2785 29.9601 26.4085 29.9469 26.5372C29.9338 26.6658 29.891 26.7897 29.8218 26.899L29.8157 26.9173Z" fill="white"/>
<path d="M23.7532 0C19.1554 0 14.6608 1.3634 10.8379 3.9178C7.015 6.47219 4.0354 10.1028 2.2759 14.3507C0.516405 18.5985 0.0560402 23.2726 0.953024 27.7821C1.85001 32.2915 4.06405 36.4337 7.31518 39.6848C10.5663 42.936 14.7085 45.15 19.2179 46.047C23.7274 46.944 28.4015 46.4836 32.6493 44.7241C36.8971 42.9646 40.5278 39.985 43.0822 36.1621C45.6366 32.3392 47 27.8446 47 23.2468C47 17.0814 44.5508 11.1685 40.1912 6.80884C35.8315 2.44921 29.9186 0 23.7532 0ZM35.2756 23.5191C35.2128 25.4497 34.6662 27.3337 33.6858 28.9981C32.7055 30.6625 31.3228 32.0541 29.6647 33.0451C28.0066 34.0361 26.1262 34.5949 24.196 34.67C22.2658 34.7452 20.3476 34.3345 18.6175 33.4754L12.8057 34.858C12.7179 34.8782 12.626 34.8714 12.542 34.8387C12.458 34.806 12.3858 34.7488 12.3347 34.6745C12.2998 34.6248 12.2755 34.5685 12.2634 34.509C12.2513 34.4495 12.2516 34.3882 12.2643 34.3288L13.4879 28.3887C12.6881 26.8216 12.2575 25.0923 12.229 23.3331C12.2006 21.574 12.575 19.8317 13.3237 18.2395C14.0724 16.6474 15.1754 15.2477 16.5484 14.1476C17.9214 13.0474 19.5279 12.276 21.2449 11.8924C22.962 11.5088 24.744 11.5232 26.4546 11.9344C28.1653 12.3457 29.7591 13.1429 31.1142 14.265C32.4692 15.3872 33.5496 16.8045 34.2725 18.4085C34.9953 20.0125 35.3416 21.7606 35.2848 23.5191H35.2756Z" fill="white"/>
</svg>
